<?xml version="1.0" standalone="no"?>
<!DOCTYPE svg PUBLIC "-//W3C//DTD SVG 20010904//EN"
 "http://www.w3.org/TR/2001/REC-SVG-20010904/DTD/svg10.dtd">
<svg version="1.0" xmlns="http://www.w3.org/2000/svg"
 width="4724.000000pt" height="2362.000000pt" viewBox="0 0 4724.000000 2362.000000"
 preserveAspectRatio="xMidYMid meet">

<g transform="translate(0.000000,2362.000000) scale(0.100000,-0.100000)"
fill="#000000" stroke="none">
<path d="M14020 15263 c-47 -13 -98 -28 -115 -33 -127 -36 -250 -78 -352 -119
-28 -12 -58 -21 -66 -21 -18 0 -38 -24 -72 -85 -31 -57 -142 -254 -225 -400
-32 -55 -75 -131 -95 -169 -21 -38 -54 -97 -74 -130 -21 -34 -43 -72 -51 -85
l-12 -24 33 20 c192 116 261 154 402 222 89 44 198 93 242 110 44 18 89 36
100 41 30 14 240 85 373 126 9 2 12 69 12 289 0 157 -3 285 -7 284 -5 -1 -46
-12 -93 -26z"/>
<path d="M15710 15204 c0 -10 13 -82 29 -159 31 -147 56 -277 68 -359 l8 -48
170 -43 c771 -193 1449 -578 2015 -1145 778 -778 1225 -1806 1266 -2910 l7
-175 116 -170 c63 -93 155 -228 204 -300 49 -71 105 -156 125 -187 21 -32 42
-57 48 -58 7 0 16 46 24 118 6 64 16 153 21 197 12 110 12 751 -1 855 -6 47
-15 128 -20 180 -6 52 -15 118 -20 145 -5 28 -17 88 -25 135 -15 82 -55 257
-75 330 -5 19 -19 71 -31 115 -44 164 -120 391 -164 490 -8 17 -32 73 -54 125
-42 100 -155 329 -218 442 -295 521 -669 971 -1148 1377 -60 50 -288 219 -395
293 -217 148 -525 316 -785 428 -27 11 -59 25 -70 30 -71 31 -119 50 -127 50
-6 0 -24 6 -41 14 -40 18 -219 78 -317 106 -41 12 -95 28 -120 35 -25 8 -67
19 -95 25 -27 6 -79 18 -115 26 -36 8 -101 20 -145 28 -44 8 -92 17 -107 21
-23 6 -28 4 -28 -11z"/>
<path d="M12990 14872 c-110 -52 -396 -193 -440 -216 -25 -13 -70 -36 -100
-51 -30 -16 -73 -40 -95 -55 -22 -15 -80 -54 -130 -86 -49 -32 -91 -62 -93
-66 -2 -5 -8 -8 -13 -8 -5 0 -33 -18 -62 -40 -29 -22 -56 -44 -62 -48 -204
-153 -321 -256 -521 -456 -198 -199 -390 -420 -474 -546 -8 -13 -24 -35 -36
-49 -87 -108 -277 -419 -386 -632 -64 -127 -89 -179 -144 -304 -32 -72 -87
-216 -110 -285 -14 -41 -29 -84 -34 -95 -17 -41 -79 -253 -100 -345 -12 -52
-26 -106 -31 -120 -17 -52 -74 -394 -89 -540 -24 -230 -30 -334 -30 -535 1
-471 65 -930 195 -1380 41 -143 152 -452 164 -460 5 -2 62 37 127 88 65 51
165 126 222 167 56 40 105 77 108 82 3 4 -8 48 -25 96 -35 102 -78 245 -96
322 -105 447 -130 651 -130 1075 0 179 5 350 13 425 18 170 49 364 67 425 8
28 31 115 51 194 34 143 44 175 91 318 215 656 601 1272 1099 1753 189 183
410 363 595 484 71 47 87 63 117 118 19 35 122 225 229 423 107 198 197 363
200 368 8 14 -22 6 -77 -21z"/>
<path d="M21712 12838 c-9 -9 -12 -183 -12 -720 l0 -708 305 0 305 0 0 425 c0
333 3 425 13 425 6 0 405 0 886 0 480 0 891 3 912 6 l39 7 0 276 c0 202 -3
280 -12 289 -17 17 -2419 17 -2436 0z"/>
<path d="M27445 12840 c-44 -5 -96 -13 -115 -19 -19 -5 -55 -13 -80 -16 -24
-4 -51 -11 -60 -16 -8 -4 -33 -12 -55 -18 -178 -44 -453 -193 -630 -341 -238
-200 -427 -459 -537 -736 -61 -154 -87 -245 -119 -424 -19 -101 -19 -479 0
-580 16 -93 59 -273 71 -303 4 -12 25 -65 46 -117 160 -404 501 -769 902 -963
265 -128 460 -175 767 -184 331 -9 569 40 850 177 382 186 671 476 860 865
211 433 241 956 84 1430 -85 255 -253 524 -453 727 -81 82 -264 228 -313 251
-13 5 -23 14 -23 19 0 4 -5 8 -11 8 -6 0 -37 16 -70 35 -33 19 -71 38 -84 41
-14 3 -25 10 -25 15 0 5 -5 9 -11 9 -5 0 -29 9 -52 19 -24 11 -56 23 -72 27
-17 4 -34 10 -40 14 -5 5 -28 11 -50 15 -22 4 -44 11 -50 15 -5 4 -37 13 -70
19 -33 6 -80 15 -105 21 -61 14 -456 21 -555 10z m475 -615 c104 -22 187 -48
267 -86 280 -130 515 -388 632 -694 69 -181 76 -225 76 -460 0 -188 -3 -219
-23 -298 -61 -229 -174 -434 -326 -591 -77 -80 -172 -158 -220 -183 -17 -9
-33 -19 -36 -22 -6 -8 -141 -73 -195 -94 -123 -48 -261 -72 -410 -72 -100 0
-252 18 -290 34 -11 5 -57 21 -102 36 -46 14 -104 38 -130 52 -61 32 -135 75
-148 86 -5 4 -35 26 -65 48 -190 138 -359 364 -437 584 -63 177 -78 282 -70
485 8 202 42 328 139 510 71 134 129 212 238 320 206 205 455 326 750 364 65
8 275 -3 350 -19z"/>
<path d="M31472 12838 c-17 -17 -17 -3689 0 -3706 17 -17 1899 -17 1916 0 17
17 17 559 0 576 -9 9 -167 12 -649 12 -351 0 -644 3 -653 6 -15 6 -16 152 -16
1559 0 1407 -1 1553 -16 1559 -9 3 -140 6 -293 6 -202 0 -280 -3 -289 -12z"/>
<path d="M35780 12807 c-13 -18 -49 -63 -81 -102 -32 -38 -88 -108 -124 -155
-36 -47 -97 -123 -135 -170 -37 -47 -107 -134 -154 -194 l-86 -109 0 -1467 c0
-1127 3 -1469 12 -1478 17 -17 579 -17 596 0 9 9 12 435 12 1854 0 1014 -4
1845 -8 1848 -5 3 -19 -9 -32 -27z"/>
<path d="M39020 12831 c-108 -20 -166 -32 -185 -40 -11 -5 -54 -21 -95 -37
-159 -61 -325 -169 -444 -289 -175 -178 -289 -405 -331 -660 -14 -88 -16 -194
-12 -885 4 -857 1 -805 64 -990 132 -387 484 -697 893 -786 121 -27 438 -27
560 0 416 90 710 363 843 782 50 157 65 227 84 405 12 110 14 167 7 186 l-9
28 -279 3 c-240 2 -281 0 -296 -13 -13 -12 -18 -40 -23 -133 -3 -64 -13 -151
-23 -192 -22 -99 -80 -222 -136 -290 -45 -55 -145 -131 -189 -145 -13 -4 -29
-11 -34 -16 -14 -10 -121 -30 -204 -36 -60 -5 -200 18 -226 37 -5 4 -21 11
-34 15 -44 14 -139 75 -196 126 -99 91 -165 215 -186 349 -6 42 -9 328 -7 775
3 709 3 710 26 770 70 186 169 296 337 375 96 45 160 60 264 60 197 0 353 -73
462 -216 83 -110 148 -314 149 -465 0 -103 -13 -99 311 -99 201 0 278 3 287
12 28 28 4 380 -35 518 -45 160 -80 241 -158 361 -50 78 -164 196 -236 244
-24 16 -46 33 -49 36 -17 20 -191 110 -240 124 -14 4 -29 11 -35 15 -5 4 -26
11 -45 15 -19 4 -41 11 -50 16 -61 33 -418 60 -530 40z"/>
<path d="M21704 11271 c-2 -2 -4 -482 -4 -1066 0 -812 3 -1064 12 -1073 17
-17 2419 -17 2436 0 17 17 17 559 0 576 -9 9 -223 12 -902 12 -490 0 -901 3
-914 6 l-22 6 2 467 3 466 834 3 c596 1 838 5 848 13 19 17 19 561 0 578 -10
8 -334 12 -1151 13 -626 2 -1140 1 -1142 -1z"/>
<path d="M14862 11103 c37 -2 100 -2 140 0 40 1 10 3 -67 3 -77 0 -110 -1 -73
-3z"/>
<path d="M15088 11103 c7 -3 16 -2 19 1 4 3 -2 6 -13 5 -11 0 -14 -3 -6 -6z"/>
<path d="M19202 9852 c-7 -81 -17 -176 -23 -212 -5 -36 -16 -110 -24 -165 -23
-161 -63 -338 -116 -513 -27 -90 -54 -173 -60 -184 -6 -11 -9 -21 -7 -23 16
-13 488 -205 505 -205 13 0 104 290 147 465 57 234 65 190 -75 425 -67 113
-129 216 -137 230 -9 14 -57 93 -107 177 l-91 152 -12 -147z"/>
<path d="M15574 9559 c-91 -97 -248 -186 -392 -223 -240 -61 -514 -3 -716 152
-33 25 -56 40 -52 34 16 -26 144 -115 211 -146 319 -151 695 -85 940 164 27
27 47 50 44 50 -3 0 -18 -14 -35 -31z"/>
<path d="M13475 9090 c-3 -5 -1 -10 4 -10 6 0 11 5 11 10 0 6 -2 10 -4 10 -3
0 -8 -4 -11 -10z"/>
<path d="M13416 9054 c-11 -8 -16 -14 -10 -14 13 0 39 18 34 24 -3 2 -14 -2
-24 -10z"/>
<path d="M13285 8980 c-3 -6 1 -7 9 -4 18 7 21 14 7 14 -6 0 -13 -4 -16 -10z"/>
<path d="M13110 8880 c-9 -6 -10 -10 -3 -10 6 0 15 5 18 10 8 12 4 12 -15 0z"/>
<path d="M12990 8810 c-8 -5 -10 -10 -5 -10 6 0 17 5 25 10 8 5 11 10 5 10 -5
0 -17 -5 -25 -10z"/>
<path d="M12654 8614 c-18 -14 -18 -15 4 -4 12 6 22 13 22 15 0 8 -5 6 -26
-11z"/>
<path d="M12350 8440 c-9 -6 -10 -10 -3 -10 6 0 15 5 18 10 8 12 4 12 -15 0z"/>
<path d="M12175 8340 c-3 -6 1 -7 9 -4 18 7 21 14 7 14 -6 0 -13 -4 -16 -10z"/>
<path d="M11930 8200 c-9 -6 -10 -10 -3 -10 6 0 15 5 18 10 8 12 4 12 -15 0z"/>
<path d="M11880 8170 c-8 -5 -10 -10 -5 -10 6 0 17 5 25 10 8 5 11 10 5 10 -5
0 -17 -5 -25 -10z"/>
<path d="M11845 8150 c-3 -5 -1 -10 4 -10 6 0 11 5 11 10 0 6 -2 10 -4 10 -3
0 -8 -4 -11 -10z"/>
<path d="M11655 8040 c-3 -6 1 -7 9 -4 18 7 21 14 7 14 -6 0 -13 -4 -16 -10z"/>
<path d="M11450 7924 c-30 -19 -51 -34 -47 -34 12 0 96 50 103 61 7 12 6 12
-56 -27z"/>
<path d="M30603 7870 c-190 -5 -173 -6 132 -6 336 -1 405 2 188 8 -56 2 -200
1 -320 -2z"/>
<path d="M32990 7860 c41 -4 101 -14 133 -23 33 -8 55 -11 50 -7 -17 17 -133
40 -194 38 l-64 -1 75 -7z"/>
<path d="M37878 7863 c100 -2 264 -2 365 0 100 1 18 2 -183 2 -201 0 -283 -1
-182 -2z"/>
<path d="M39367 7863 c94 -2 252 -2 350 0 98 1 21 2 -172 2 -192 1 -273 -1
-178 -2z"/>
<path d="M39900 7860 c0 -5 9 -10 21 -10 11 0 17 5 14 10 -3 6 -13 10 -21 10
-8 0 -14 -4 -14 -10z"/>
<path d="M32840 7845 l-35 -14 40 6 c22 3 47 9 55 14 25 14 -20 9 -60 -6z"/>
<path d="M32760 7810 c-9 -6 -10 -10 -3 -10 6 0 15 5 18 10 8 12 4 12 -15 0z"/>
<path d="M33204 7806 c11 -9 24 -16 30 -16 12 0 7 5 -24 19 -24 11 -24 11 -6
-3z"/>
<path d="M32696 7774 c-11 -8 -16 -14 -10 -14 13 0 39 18 34 24 -3 2 -14 -2
-24 -10z"/>
<path d="M33250 7781 c0 -5 7 -12 16 -15 14 -5 15 -4 4 9 -14 17 -20 19 -20 6z"/>
<path d="M11185 7770 c-3 -6 1 -7 9 -4 18 7 21 14 7 14 -6 0 -13 -4 -16 -10z"/>
<path d="M17490 7736 c0 -2 7 -7 16 -10 8 -3 12 -2 9 4 -6 10 -25 14 -25 6z"/>
<path d="M17540 7706 c0 -2 7 -7 16 -10 8 -3 12 -2 9 4 -6 10 -25 14 -25 6z"/>
<path d="M17590 7676 c0 -2 7 -7 16 -10 8 -3 12 -2 9 4 -6 10 -25 14 -25 6z"/>
<path d="M10995 7660 c-3 -6 1 -7 9 -4 18 7 21 14 7 14 -6 0 -13 -4 -16 -10z"/>
<path d="M17660 7636 c0 -2 7 -7 16 -10 8 -3 12 -2 9 4 -6 10 -25 14 -25 6z"/>
<path d="M10726 7505 c-11 -8 -15 -15 -9 -15 6 0 16 7 23 15 16 19 11 19 -14
0z"/>
<path d="M17907 7499 c7 -7 15 -10 18 -7 3 3 -2 9 -12 12 -14 6 -15 5 -6 -5z"/>
<path d="M18047 7424 c3 -9 -42 -61 -132 -150 -398 -393 -873 -705 -1400 -919
-77 -32 -147 -61 -155 -65 -9 -4 -31 -11 -50 -15 -19 -4 -41 -11 -50 -16 -37
-20 -349 -104 -495 -133 -252 -50 -211 -44 -525 -77 -167 -17 -742 -5 -910 19
-164 24 -296 47 -347 61 -21 5 -72 17 -113 26 -110 24 -251 66 -440 131 -140
48 -194 70 -423 178 l-118 55 -67 -9 c-37 -5 -121 -19 -187 -30 -66 -12 -165
-27 -220 -35 -55 -8 -136 -21 -180 -29 -44 -8 -101 -17 -128 -21 -26 -3 -45
-11 -41 -16 13 -22 279 -191 454 -289 486 -271 1097 -479 1625 -554 317 -44
405 -50 745 -50 409 1 644 25 1000 100 729 156 1357 442 1950 889 239 181 448
373 674 618 61 67 93 94 100 87 5 -5 14 -10 20 -10 25 0 -16 21 -104 53 -89
33 -403 170 -425 186 -5 4 -22 12 -37 19 -23 9 -26 9 -21 -4z"/>
<path d="M11767 7377 c-174 -108 -322 -202 -327 -208 -3 -3 -20 -14 -39 -24
l-34 -17 139 -140 c76 -77 195 -190 264 -250 118 -104 126 -110 160 -104 19 3
186 19 370 36 184 17 358 34 385 39 49 8 49 8 23 19 -35 15 -88 49 -223 146
-60 44 -123 89 -140 100 -70 49 -219 180 -351 309 -78 75 -145 137 -150 136
-5 0 -40 -19 -77 -42z"/>
<path d="M10496 7375 c-11 -8 -15 -15 -9 -15 6 0 16 7 23 15 16 19 11 19 -14
0z"/>
<path d="M10300 7260 c-8 -5 -10 -10 -5 -10 6 0 17 5 25 10 8 5 11 10 5 10 -5
0 -17 -5 -25 -10z"/>
<path d="M10256 7235 c-11 -8 -15 -15 -9 -15 6 0 16 7 23 15 16 19 11 19 -14
0z"/>
<path d="M31350 7195 c-11 -13 -10 -14 4 -9 9 3 16 10 16 15 0 13 -6 11 -20
-6z"/>
<path d="M37840 7200 c-115 -4 -67 -6 184 -8 187 -1 337 0 334 3 -7 8 -344 11
-518 5z"/>
<path d="M31270 7149 c-30 -16 -49 -29 -42 -29 7 0 32 10 55 23 54 28 51 26
46 31 -2 2 -29 -9 -59 -25z"/>
<path d="M10125 7160 c-3 -6 1 -7 9 -4 18 7 21 14 7 14 -6 0 -13 -4 -16 -10z"/>
<path d="M31165 7108 c-16 -5 -86 -13 -155 -17 l-125 -8 101 -1 c104 -2 201
11 218 28 12 12 1 12 -39 -2z"/>
<path d="M18860 7090 c20 -13 33 -13 25 0 -3 6 -14 10 -23 10 -15 0 -15 -2 -2
-10z"/>
<path d="M39743 7083 c26 -2 67 -2 90 0 23 2 2 3 -48 3 -49 0 -68 -1 -42 -3z"/>
<path d="M30810 7064 l-25 -15 25 7 c14 3 29 10 35 15 15 14 -7 10 -35 -7z"/>
<path d="M39615 7070 c-7 -12 32 -12 60 0 16 7 13 9 -17 9 -20 1 -40 -3 -43
-9z"/>
<path d="M18950 7060 c8 -5 22 -9 30 -9 10 0 8 3 -5 9 -27 12 -43 12 -25 0z"/>
<path d="M9908 7034 c-38 -20 -36 -28 2 -9 17 9 30 18 30 20 0 7 -1 6 -32 -11z"/>
<path d="M30759 7033 c-13 -16 -12 -17 4 -4 9 7 17 15 17 17 0 8 -8 3 -21 -13z"/>
<path d="M19040 7030 c8 -5 24 -9 35 -9 l20 0 -20 9 c-11 5 -27 9 -35 9 -13 1
-13 0 0 -9z"/>
<path d="M9850 7000 c-9 -6 -10 -10 -3 -10 6 0 15 5 18 10 8 12 4 12 -15 0z"/>
<path d="M19175 6990 c11 -5 27 -9 35 -9 9 0 8 4 -5 9 -11 5 -27 9 -35 9 -9 0
-8 -4 5 -9z"/>
<path d="M19268 6963 c7 -3 16 -2 19 1 4 3 -2 6 -13 5 -11 0 -14 -3 -6 -6z"/>
<path d="M19368 6933 c7 -3 16 -2 19 1 4 3 -2 6 -13 5 -11 0 -14 -3 -6 -6z"/>
<path d="M19415 6920 c27 -12 43 -12 25 0 -8 5 -22 9 -30 9 -10 0 -8 -3 5 -9z"/>
<path d="M19498 6893 c7 -3 16 -2 19 1 4 3 -2 6 -13 5 -11 0 -14 -3 -6 -6z"/>
<path d="M19538 6883 c7 -3 16 -2 19 1 4 3 -2 6 -13 5 -11 0 -14 -3 -6 -6z"/>
<path d="M19618 6858 c5 -5 16 -8 23 -6 8 3 3 7 -10 11 -17 4 -21 3 -13 -5z"/>
<path d="M19728 6823 c7 -3 16 -2 19 1 4 3 -2 6 -13 5 -11 0 -14 -3 -6 -6z"/>
<path d="M19806 6801 c9 -9 83 -27 74 -18 -3 3 -23 10 -44 16 -22 5 -35 6 -30
2z"/>
<path d="M9485 6790 c-3 -6 1 -7 9 -4 18 7 21 14 7 14 -6 0 -13 -4 -16 -10z"/>
<path d="M19930 6760 c34 -11 60 -11 35 0 -11 5 -29 8 -40 8 -16 0 -15 -2 5
-8z"/>
<path d="M19995 6740 c3 -5 14 -10 23 -10 15 0 15 2 2 10 -20 13 -33 13 -25 0z"/>
<path d="M9365 6720 c-3 -6 1 -7 9 -4 18 7 21 14 7 14 -6 0 -13 -4 -16 -10z"/>
<path d="M32529 6676 c15 -17 177 -99 188 -94 5 1 -38 27 -96 56 -57 29 -99
46 -92 38z"/>
<path d="M20336 6631 c9 -9 83 -27 74 -18 -3 3 -23 10 -44 16 -22 5 -35 6 -30
2z"/>
<path d="M20426 6601 c9 -9 83 -27 74 -18 -3 3 -23 10 -44 16 -22 5 -35 6 -30
2z"/>
<path d="M33250 6593 c-93 -41 -308 -55 -435 -28 -83 18 -82 18 -69 5 9 -9
105 -26 208 -35 51 -5 254 21 271 35 5 4 25 11 42 15 18 3 35 11 38 16 9 13
-15 10 -55 -8z"/>
<path d="M9135 6590 c-3 -6 1 -7 9 -4 18 7 21 14 7 14 -6 0 -13 -4 -16 -10z"/>
<path d="M9094 6564 c-18 -14 -18 -15 4 -4 12 6 22 13 22 15 0 8 -5 6 -26 -11z"/>
<path d="M20535 6565 c17 -8 37 -14 45 -14 8 0 -1 7 -20 14 -46 18 -64 17 -25
0z"/>
<path d="M35197 6558 c-7 -5 1 -8 21 -8 17 0 32 4 32 8 0 10 -37 10 -53 0z"/>
<path d="M35785 6560 c-4 -6 7 -10 24 -10 17 0 31 5 31 10 0 6 -11 10 -24 10
-14 0 -28 -4 -31 -10z"/>
<path d="M30400 6540 c19 -12 218 -11 226 1 3 5 -48 9 -118 9 -84 0 -118 -3
-108 -10z"/>
<path d="M37405 6540 c8 -13 994 -14 1015 0 10 6 -172 9 -503 10 -349 0 -516
-3 -512 -10z"/>
<path d="M39205 6541 c6 -11 178 -11 215 0 15 4 -26 7 -98 8 -74 1 -121 -3
-117 -8z"/>
<path d="M40104 6541 c8 -12 205 -13 231 -1 13 5 -26 9 -108 9 -74 1 -126 -3
-123 -8z"/>
<path d="M20655 6525 c17 -8 37 -14 45 -14 8 0 -1 7 -20 14 -46 18 -64 17 -25
0z"/>
<path d="M20760 6490 c8 -5 22 -9 30 -9 10 0 8 3 -5 9 -27 12 -43 12 -25 0z"/>
<path d="M21068 6383 c7 -3 16 -2 19 1 4 3 -2 6 -13 5 -11 0 -14 -3 -6 -6z"/>
<path d="M21110 6370 c8 -5 20 -10 25 -10 6 0 3 5 -5 10 -8 5 -19 10 -25 10
-5 0 -3 -5 5 -10z"/>
<path d="M8740 6360 c-9 -6 -10 -10 -3 -10 6 0 15 5 18 10 8 12 4 12 -15 0z"/>
<path d="M21158 6353 c7 -3 16 -2 19 1 4 3 -2 6 -13 5 -11 0 -14 -3 -6 -6z"/>
<path d="M21255 6320 c27 -12 43 -12 25 0 -8 5 -22 9 -30 9 -10 0 -8 -3 5 -9z"/>
<path d="M8615 6290 c-3 -6 1 -7 9 -4 18 7 21 14 7 14 -6 0 -13 -4 -16 -10z"/>
<path d="M21328 6293 c7 -3 16 -2 19 1 4 3 -2 6 -13 5 -11 0 -14 -3 -6 -6z"/>
<path d="M21400 6270 c8 -5 20 -10 25 -10 6 0 3 5 -5 10 -8 5 -19 10 -25 10
-5 0 -3 -5 5 -10z"/>
<path d="M21448 6253 c7 -3 16 -2 19 1 4 3 -2 6 -13 5 -11 0 -14 -3 -6 -6z"/>
<path d="M21540 6222 c8 -5 26 -13 40 -16 17 -5 20 -4 10 2 -8 5 -26 13 -40
16 -17 5 -20 4 -10 -2z"/>
<path d="M8430 6180 c-9 -6 -10 -10 -3 -10 6 0 15 5 18 10 8 12 4 12 -15 0z"/>
<path d="M21650 6180 c8 -5 20 -10 25 -10 6 0 3 5 -5 10 -8 5 -19 10 -25 10
-5 0 -3 -5 5 -10z"/>
<path d="M21704 6161 c4 -6 15 -11 24 -11 9 -1 35 -9 57 -20 22 -11 49 -19 60
-19 11 0 -7 10 -40 23 -91 35 -109 40 -101 27z"/>
<path d="M8334 6124 c-18 -14 -18 -15 4 -4 12 6 22 13 22 15 0 8 -5 6 -26 -11z"/>
<path d="M8276 6095 c-11 -8 -16 -15 -10 -15 5 0 18 7 28 15 11 8 16 15 10 15
-5 0 -18 -7 -28 -15z"/>
<path d="M21890 6095 c14 -8 32 -14 40 -14 8 0 0 6 -19 14 -42 19 -54 19 -21
0z"/>
<path d="M22267 5959 c7 -7 15 -10 18 -7 3 3 -2 9 -12 12 -14 6 -15 5 -6 -5z"/>
<path d="M22308 5943 c7 -3 16 -2 19 1 4 3 -2 6 -13 5 -11 0 -14 -3 -6 -6z"/>
<path d="M22347 5929 c7 -7 15 -10 18 -7 3 3 -2 9 -12 12 -14 6 -15 5 -6 -5z"/>
<path d="M7855 5850 c-3 -6 1 -7 9 -4 18 7 21 14 7 14 -6 0 -13 -4 -16 -10z"/>
<path d="M22555 5850 c11 -5 27 -9 35 -9 9 0 8 4 -5 9 -11 5 -27 9 -35 9 -9 0
-8 -4 5 -9z"/>
<path d="M7800 5820 c-8 -5 -10 -10 -5 -10 6 0 17 5 25 10 8 5 11 10 5 10 -5
0 -17 -5 -25 -10z"/>
<path d="M22750 5780 c8 -5 20 -10 25 -10 6 0 3 5 -5 10 -8 5 -19 10 -25 10
-5 0 -3 -5 5 -10z"/>
<path d="M7674 5744 c-18 -14 -18 -15 4 -4 12 6 22 13 22 15 0 8 -5 6 -26 -11z"/>
<path d="M22820 5750 c8 -5 22 -10 30 -10 13 0 13 1 0 10 -8 5 -22 10 -30 10
-13 0 -13 -1 0 -10z"/>
<path d="M22900 5720 c0 -8 60 -23 67 -17 1 2 -13 8 -32 14 -19 6 -35 8 -35 3z"/>
<path d="M7610 5710 c-8 -5 -10 -10 -5 -10 6 0 17 5 25 10 8 5 11 10 5 10 -5
0 -17 -5 -25 -10z"/>
<path d="M22986 5691 c5 -5 20 -12 34 -15 l25 -7 -25 15 c-28 17 -50 21 -34 7z"/>
<path d="M7560 5680 c-8 -5 -10 -10 -5 -10 6 0 17 5 25 10 8 5 11 10 5 10 -5
0 -17 -5 -25 -10z"/>
<path d="M23055 5660 c3 -5 14 -10 23 -10 15 0 15 2 2 10 -20 13 -33 13 -25 0z"/>
<path d="M23358 5548 c5 -5 16 -8 23 -6 8 3 3 7 -10 11 -17 4 -21 3 -13 -5z"/>
<path d="M7260 5510 c-9 -6 -10 -10 -3 -10 6 0 15 5 18 10 8 12 4 12 -15 0z"/>
<path d="M23518 5483 c7 -3 16 -2 19 1 4 3 -2 6 -13 5 -11 0 -14 -3 -6 -6z"/>
<path d="M7175 5459 c-16 -10 -25 -19 -19 -19 7 0 22 9 35 20 30 24 23 24 -16
-1z"/>
<path d="M23604 5456 c11 -9 24 -16 30 -16 12 0 7 5 -24 19 -24 11 -24 11 -6
-3z"/>
<path d="M23858 5353 c7 -3 16 -2 19 1 4 3 -2 6 -13 5 -11 0 -14 -3 -6 -6z"/>
<path d="M23960 5317 c0 -3 15 -10 32 -16 18 -6 28 -7 23 -2 -12 10 -55 25
-55 18z"/>
<path d="M24075 5270 c27 -12 43 -12 25 0 -8 5 -22 9 -30 9 -10 0 -8 -3 5 -9z"/>
<path d="M6795 5240 c-3 -6 1 -7 9 -4 18 7 21 14 7 14 -6 0 -13 -4 -16 -10z"/>
<path d="M24145 5240 c27 -12 43 -12 25 0 -8 5 -22 9 -30 9 -10 0 -8 -3 5 -9z"/>
<path d="M24200 5224 c0 -7 52 -25 57 -20 2 2 -10 8 -26 14 -17 6 -31 9 -31 6z"/>
<path d="M6740 5210 c-8 -5 -10 -10 -5 -10 6 0 17 5 25 10 8 5 11 10 5 10 -5
0 -17 -5 -25 -10z"/>
<path d="M24280 5190 c0 -5 5 -10 11 -10 5 0 7 5 4 10 -3 6 -8 10 -11 10 -2 0
-4 -4 -4 -10z"/>
<path d="M6695 5180 c-3 -6 1 -7 9 -4 18 7 21 14 7 14 -6 0 -13 -4 -16 -10z"/>
<path d="M24318 5173 c7 -3 16 -2 19 1 4 3 -2 6 -13 5 -11 0 -14 -3 -6 -6z"/>
<path d="M6445 5040 c-3 -6 1 -7 9 -4 18 7 21 14 7 14 -6 0 -13 -4 -16 -10z"/>
<path d="M6354 4984 c-18 -14 -18 -15 4 -4 12 6 22 13 22 15 0 8 -5 6 -26 -11z"/>
<path d="M6100 4840 c-8 -5 -10 -10 -5 -10 6 0 17 5 25 10 8 5 11 10 5 10 -5
0 -17 -5 -25 -10z"/>
<path d="M6050 4809 c-22 -18 -22 -19 -3 -10 12 6 25 16 28 21 9 15 3 12 -25
-11z"/>
<path d="M5980 4770 c-8 -5 -10 -10 -5 -10 6 0 17 5 25 10 8 5 11 10 5 10 -5
0 -17 -5 -25 -10z"/>
<path d="M5936 4745 c-11 -8 -15 -15 -9 -15 6 0 16 7 23 15 16 19 11 19 -14 0z"/>
</g>
</svg>
